<?xml version="1.0"?>
<svg xmlns="http://www.w3.org/2000/svg" xmlns:xlink="http://www.w3.org/1999/xlink" version="1.1" id="Layer_1" x="0px" y="0px" viewBox="0 0 469.333 469.333" style="enable-background:new 0 0 469.333 469.333;" xml:space="preserve" width="512px" height="512px"><g><g>
	<g>
		<g>
			<path d="M254.948,261.197c0.441-1.706,1.052-3.354,1.052-5.197c0-7.792-4.409-14.329-10.667-18.053v-99.28     c0-5.896-4.771-10.667-10.667-10.667S224,132.771,224,138.667v99.28c-6.258,3.724-10.667,10.262-10.667,18.053     c0,11.76,9.573,21.333,21.333,21.333c1.842,0,3.492-0.612,5.199-1.053l51.27,51.262c2.083,2.083,4.813,3.125,7.542,3.125     c2.729,0,5.458-1.042,7.542-3.125c4.167-4.167,4.167-10.917,0-15.083L254.948,261.197z" data-original="#000000" class="active-path" data-old_color="#000000" fill="#267DF4"/>
			<path d="M234.667,64c-105.865,0-192,86.135-192,192c0,47.589,17.507,91.098,46.285,124.681l-24.421,74.673     c-1.542,4.688,0.344,9.823,4.552,12.406c1.729,1.052,3.656,1.573,5.583,1.573c2.75,0,5.49-1.063,7.542-3.125l48.829-48.829     C160.969,436.668,196.49,448,234.667,448s73.698-11.332,103.629-30.621l48.829,48.829c2.052,2.063,4.792,3.125,7.542,3.125     c1.927,0,3.854-0.521,5.583-1.573c4.208-2.583,6.094-7.719,4.552-12.406l-24.421-74.673     c28.779-33.583,46.285-77.092,46.285-124.681C426.667,150.135,340.531,64,234.667,64z M98.677,419.573l7.09-21.693     c2.552,2.322,5.049,4.697,7.724,6.879L98.677,419.573z M355.842,404.759c2.674-2.182,5.172-4.557,7.724-6.879l7.09,21.693     L355.842,404.759z M234.667,426.667C140.562,426.667,64,350.104,64,256S140.562,85.333,234.667,85.333     S405.333,161.896,405.333,256S328.771,426.667,234.667,426.667z" data-original="#000000" class="active-path" data-old_color="#000000" fill="#267DF4"/>
			<path d="M163.885,43.198c2-2,3.125-4.719,3.125-7.542c0-2.833-1.125-5.542-3.125-7.542C145.74,9.979,121.635,0,96,0     C43.062,0,0,43.062,0,96c0,25.635,9.979,49.74,28.115,67.885c2,2,4.708,3.125,7.542,3.125c2.833,0,5.542-1.125,7.542-3.125     L163.885,43.198z M21.333,96c0-41.167,33.5-74.667,74.667-74.667c16.344,0,31.885,5.219,44.729,14.854L36.187,140.729     C26.552,127.885,21.333,112.344,21.333,96z" data-original="#000000" class="active-path" data-old_color="#000000" fill="#267DF4"/>
			<path d="M373.333,0c-25.635,0-49.74,9.979-67.885,28.115c-2,2-3.125,4.708-3.125,7.542c0,2.823,1.125,5.542,3.125,7.542     l120.688,120.688c2,2,4.719,3.125,7.542,3.125c2.833,0,5.542-1.125,7.542-3.125c18.135-18.146,28.115-42.25,28.115-67.885     C469.333,43.062,426.271,0,373.333,0z M433.146,140.729L328.604,36.187c12.844-9.635,28.385-14.854,44.729-14.854     C414.5,21.333,448,54.833,448,96C448,112.344,442.781,127.885,433.146,140.729z" data-original="#000000" class="active-path" data-old_color="#000000" fill="#267DF4"/>
		</g>
	</g>
</g></g> </svg>
